<?xml version="1.0" standalone="no"?>
<!DOCTYPE svg PUBLIC "-//W3C//DTD SVG 20010904//EN"
 "http://www.w3.org/TR/2001/REC-SVG-20010904/DTD/svg10.dtd">
<svg version="1.0" xmlns="http://www.w3.org/2000/svg"
 width="672.000000pt" height="1280.000000pt" viewBox="0 0 672.000000 1280.000000"
 preserveAspectRatio="xMidYMid meet">
<metadata>
Created by potrace 1.15, written by Peter Selinger 2001-2017
</metadata>
<g transform="translate(0.000000,1280.000000) scale(0.100000,-0.100000)"
fill="#000000" stroke="none">
<path d="M1310 7517 c-122 -35 -219 -120 -287 -253 -117 -226 -118 -470 -2
-643 59 -89 110 -116 214 -116 68 0 88 5 135 29 247 129 382 543 261 802 -70
149 -192 218 -321 181z"/>
<path d="M2153 7046 c-204 -52 -407 -263 -463 -481 -24 -94 -25 -160 -4 -234
20 -71 58 -127 113 -166 38 -27 52 -30 132 -33 69 -3 104 1 157 17 174 53 333
213 414 416 27 68 32 93 32 170 1 110 -19 175 -74 238 -22 25 -59 52 -82 62
-56 22 -161 28 -225 11z"/>
<path d="M344 7037 c-151 -57 -266 -270 -266 -492 0 -157 49 -289 143 -384 62
-63 119 -86 199 -78 74 6 131 38 194 108 89 99 136 235 136 394 0 155 -46 287
-132 380 -66 73 -188 104 -274 72z"/>
<path d="M780 6050 c-98 -25 -311 -133 -430 -218 -115 -82 -275 -241 -314
-311 -72 -133 -28 -302 99 -381 60 -37 147 -60 335 -90 336 -53 410 -94 614
-339 159 -190 224 -233 354 -232 208 2 304 222 272 625 -45 579 -204 855 -543
943 -115 30 -276 31 -387 3z"/>
<path d="M2323 6029 c-162 -28 -320 -140 -423 -300 -48 -74 -70 -147 -70 -231
0 -166 89 -258 265 -274 179 -17 403 113 519 300 104 167 101 340 -6 443 -58
56 -176 82 -285 62z"/>
<path d="M2299 3031 c-112 -44 -194 -128 -260 -266 -115 -241 -99 -498 41
-658 22 -25 59 -52 82 -62 251 -101 536 211 540 590 1 139 -28 231 -103 325
-67 83 -193 113 -300 71z"/>
<path d="M1397 2569 c-61 -14 -92 -35 -145 -95 -94 -105 -145 -244 -145 -399
-1 -152 43 -278 129 -374 63 -70 111 -93 189 -93 282 2 455 459 294 776 -17
34 -44 78 -61 98 -53 67 -175 108 -261 87z"/>
<path d="M3141 2560 c-125 -46 -246 -145 -331 -270 -192 -283 -118 -619 139
-638 229 -17 476 170 582 440 74 189 24 392 -115 466 -50 26 -207 27 -275 2z"/>
<path d="M1878 1590 c-137 -25 -291 -94 -463 -208 -118 -78 -321 -273 -355
-342 -28 -56 -38 -161 -20 -216 48 -147 152 -202 461 -248 321 -48 406 -94
611 -338 123 -146 148 -170 217 -204 71 -35 185 -40 240 -10 160 86 211 359
150 796 -38 278 -115 465 -244 596 -76 77 -170 131 -280 159 -71 19 -251 28
-317 15z"/>
<path d="M3303 1545 c-146 -40 -289 -152 -382 -300 -92 -145 -83 -337 20 -430
103 -92 317 -85 487 17 120 73 241 225 276 347 48 166 -16 320 -153 364 -64
21 -175 21 -248 2z"/>
</g>
</svg>
